<?xml version="1.0" encoding="UTF-8" standalone="no"?>
<!-- Created with Inkscape (http://www.inkscape.org/) -->
<svg xmlns:rdf="http://www.w3.org/1999/02/22-rdf-syntax-ns#" xmlns="http://www.w3.org/2000/svg" xmlns:cc="http://web.resource.org/cc/" xmlns:dc="http://purl.org/dc/elements/1.1/" xmlns:svg="http://www.w3.org/2000/svg" xmlns:inkscape="http://www.inkscape.org/namespaces/inkscape" xmlns:sodipodi="http://sodipodi.sourceforge.net/DTD/sodipodi-0.dtd" xmlns:ns1="http://sozi.baierouge.fr" xmlns:xlink="http://www.w3.org/1999/xlink" id="Layer_1" xml:space="preserve" version="1.0" viewBox="0 0 309.818 310.991" inkscape:version="0.91 r13725">
<g id="g5">
	<path id="path7" style="stroke:#000000;stroke-width:.036;stroke-miterlimit:10;fill-rule:evenodd" d="m147.69 303.74v-31.93c4.14 0.04 8.28 1.19 12.85 3.6 4.5 2.27 9.14 6.91 13.93 10.48 4.65 3.56 10.19 8.71 13.72 10.73 3.35 1.94 5.43 1.26 6.66 0.72 1.22-0.65 1.44-2.34 0.64-4.79 5.19 3.81 11.38 7.09 18.87 10.26 7.45 3.09 20.55 7.27 25.7 8.1 4.9 0.57 3.71-2.67 4.07-4.03 0.36-1.41-3.06-3.82-1.91-4.32 1.15-0.51 4.86 0.14 8.35 0.97 3.46 0.72 7.57 2.81 11.78 3.35 3.96 0.36 10.08 0.47 12.23-0.51 2.02-1.04 1.19-3.63 0.44-5-0.87-1.4-2.49-2.56-5.15-3.31 5.26-0.72 10.3-1.84 15.66-3.35 5.22-1.59 13.28-4 15.84-5.98 2.48-2.19 3.24-4.21-1.08-6.19-4.64-1.94-21.81-3.35-25.7-5.47-3.82-2.31 1.76-4.97 2.98-7.85 1.19-3.02 5.19-7.78 4.07-9.54-1.19-1.73-5.87-0.54-11.12-0.72-5.51-0.32-16.38 0.04-20.81-0.72-4.32-0.83-4.79-2.45-5.15-4.03-0.47-1.73 3.64-5.15 2.59-5.98-1.22-0.9-4.14-0.21-9.43 0.94-5.44 1.04-17.06 4.5-22.1 5.51-4.93 0.9-6.59 0.72-7.49 0-0.97-0.87 1.94-4.04 1.51-4.79-0.68-0.83-1.26-0.83-4.93 0-3.78 0.79-11.38 4.35-16.96 5-5.68 0.51-14.61-0.39-16.48-1.19-1.77-0.9 2.73-2.23 5.58-3.56 2.55-1.37 5.65-4.03 10.69-4.54 5.04-0.57 14.58 0.72 19.73 0.98 4.97 0.07 7.99 0.36 10.73-0.26 2.66-0.79 3.02-2.44 5.79-3.56 2.74-1.04 9.04-1.48 10.69-3.1 1.52-1.72 1.19-4.24-1.26-7.41 4.65 1.3 9.18 1.33 14.15 0.5 4.82-0.97 10.01-4.86 14.98-5.97 4.86-1.16 9.97-0.54 14.36-0.94 4.25-0.54 11.09-0.61 11.38-2.16 0.1-1.76-6.7-5.47-9.87-7.63-3.2-2.23-8.53-3.03-8.78-5.01-0.29-2.01 3.38-5.11 7.27-6.91 3.96-2.05 11.2-3.35 15.88-4.28 4.43-0.87 8.02 0.14 10.94-0.72 2.92-1.01 6.88-3.35 6.19-4.93-0.94-1.77-6.91-3.53-11.12-4.76-4.4-1.15-12.24-1.11-14.37-2.37-2.08-1.41 2.56-4.83 1.7-5.98-1.12-1.19-4.36-1.08-7.49-1.19-3.13-0.25-7.71-0.28-10.95-0.25-3.31-0.03-8.13 0.97-8.78 0.25-0.72-0.9 4.86-3.45 4.5-4.75-0.54-1.26-2.59-2.91-7.27-2.63-4.86 0.29-14.9 1.77-20.81 4.04-5.8 2.08-10.44 6.94-13.93 8.6-3.6 1.44-5.58 1.8-7.06 0.94-1.48-0.98-0.9-5.94-1.73-5.73-0.97 0.22-1.58 4.25-3.63 7.38-2.2 3.03-5.8 6.91-9 11.23-3.17 4.32-5.84 10.26-10.08 14.51-4.47 4.14-12.93 8.86-16.1 10.26-3.2 1.23-4.35 0.07-2.77-2.63 1.66-2.91 6.45-7.84 11.99-13.82 5.29-6.08 16.67-17.6 19.94-21.92 3.03-4.43-1.15-2.67-0.86-4.04 0.25-1.44 0.61-2.01 2.59-4.06 1.87-2.09 7.35-5.66 8.79-8.36 1.29-2.8-1.73-5.9-0.87-8.31 0.87-2.63 4.9-4.86 5.58-6.7 0.47-1.83-1.55-3.63-2.59-4.03-1.3-0.5-3.74 2.16-4.28 1.19-0.58-1.15 0.18-5.22 1.29-7.63 1.12-2.45 3.21-3.6 5.15-6.92 1.84-3.6 5.51-10.44 6.01-13.28 0.36-2.77-2.99-0.94-3.24-3.1-0.25-2.37 1.37-7.09 1.95-10.26 0.43-3.24 2.16-9.14 0.86-8.56-1.4 0.61-6.37 9.21-9.22 11.91-2.95 2.49-6.12 1.98-7.95 3.35-1.84 1.3-1.98 1.66-3.21 4.28-1.36 2.49-1.94 8.28-4.5 10.73-2.7 2.38-9.21 4.9-10.94 3.82-1.69-1.26 1.91-10.3 0.65-10.73-1.48-0.39-6.45 5.04-9.22 8.1-2.91 2.88-5.51 8.14-7.92 9.54-2.37 1.26-5.22-2.88-6.44-1.19-1.37 1.7-0.61 5.69-1.48 11.42-1.08 5.68-2.59 16.27-4.1 22.43-1.55 6.08-3.1 10.22-4.93 13.82-1.91 3.42-3.93 5.72-6.2 6.91 1.41-16.85 2.45-32.4 2.99-47.2 0.54-14.9 0.61-28.36 0.22-41.22 3.38 3.89 7.27 6.48 11.81 7.38 4.5 0.87 10.11 0.26 15.19-1.69 5-2.01 11.95-6.05 14.58-10.01 2.3-4.1 1.91-9.932 0.21-14.036-1.72-4.104-5.11-7.596-10.29-10.476 2.81 0.18 5.54-1.044 8.6-3.816 2.95-2.844 7.27-7.704 9.22-12.636 1.94-5.04 2.77-12.06 2.34-17.172-0.72-5.184-2.05-11.232-5.8-13.572-3.89-2.376-11.55-2.016-16.49-0.72-4.89 1.296-8.92 4.104-12.63 7.884-3.82 3.528-7.13 8.1-10.08 13.572 1.33-4.5 1.83-9.684 1.51-15.552-0.32-5.976-1.22-14.004-3.67-19.764-2.67-5.976-7.24-12.204-11.77-14.796-4.76-2.556-11.34-2.412-15.45 0-4.1 2.376-6.91 7.74-8.57 14.292-1.65 6.479-2.08 14.616-1.29 24.552-3.6-3.456-7.96-6.12-13.5-7.848-5.618-1.8-14.582-4.104-19.514-2.88-4.932 1.044-10.152 4.356-9.828 9.54 0.108 5.256 7.56 15.696 11.124 21.456 3.564 5.544 6.552 9 10.08 12.168 3.418 3.168 6.878 5.292 10.508 6.66-8.384 3.96-13.892 8.28-16.52 13.104-2.628 4.752-2.412 11.16 0.648 15.48 3.024 4.18 12.272 7.31 16.922 9.79 4.43 2.41 6.3 4.18 9.65 4.75 3.2 0.4 5.72-0.18 9.64-2.12 3.96-2.02 8.36-5.15 13.72-9.54 0.58 12.71 0.79 25.42 0.65 38.66-0.15 13.22-0.76 26.28-1.69 40.04-1.7-2.42-2.92-5.33-3.68-8.61-0.79-3.49 0.11-9.47-1.04-11.41-1.3-1.84-4.97 1.94-6.44 0.22-1.48-2.06-1.34-8.82-2.78-11.42-1.72-2.55-5.5-3.7-6.87-3.6-1.37 0.04-0.69 3.71-1.3 4.07-0.65 0.32-1.51 0.5-2.99-2.38-1.69-3.02-4.6-12.63-6.66-15.51-2.08-2.99-4.28-1.87-5.76-1.91-1.54-0.04-1.65 3.17-3.236 1.69-1.8-1.65-4.752-8.75-6.624-10.73-1.908-1.9-3.816-2.08-4.068-0.97-0.18 1.05 3.708 6.09 2.772 6.91-1.152 0.65-5.796-1.54-9.216-2.84-3.456-1.4-6.66-3.53-11.16-5.26-4.68-1.9-12.6-4.89-16.272-5.22-3.78-0.21-6.012 1.37-5.58 3.78 0.504 2.24 7.452 7.82 8.352 9.8 0.684 1.72-4.68 0.43-3.852 1.65 0.72 1.23 7.272 4.54 8.568 6.19 1.152 1.52-1.368 2.16-1.044 3.6 0.36 1.37 1.296 3.5 3.204 5.01 1.8 1.47 7.236 2.7 7.704 3.81 0.432 0.94-3.6 1.66-5.148 2.6-1.692 0.97-4.788 1.44-4.716 3.35-0.036 1.83 1.476 4.1 4.932 7.63s12.888 10.11 15.66 13.35c2.556 3.06-1.152 3.14 0 5.22 1.116 2.06 3.636 4.36 6.444 6.92 2.7 2.34 7.812 5.36 9.648 7.41 1.652 1.91-1.008 2.67 0.612 4.5 1.69 1.77 4.9 2.99 9.22 6.44 4.17 3.42 12.88 10.66 15.87 14.23 2.74 3.52 2.27 6.3 1.51 6.91-0.82 0.54-1.9-0.51-6.01-3.82-4.25-3.49-14.97-13.35-18.86-16.41-3.89-3.07-2.27-0.29-4.286-1.7-2.16-1.51-6.012-4.31-8.352-6.91-2.448-2.7-4.428-8.1-5.796-8.82-1.44-0.68-1.44 5.04-2.772 4.54-1.512-0.69-3.996-6.01-5.796-8.35-1.908-2.49-3.672-4.97-5.148-5.94-1.44-0.98-2.376 0.86-3.636 0.25-1.332-0.72-1.512-2.74-4.284-4.54-2.952-1.94-8.82-4.17-12.888-6.69-4.068-2.7-8.352-6.66-11.34-8.57-3.24-1.98-6.804-4.25-7.092-2.63-0.18 1.69 4.716 9.54 5.796 12.42 1.008 2.67 1.476 3.39 0 3.82-1.656 0.36-5.976-1.05-9.648-1.44-3.852-0.54-8.388-1.26-12.636-1.19-4.212-0.04-10.584 0.43-12.456 1.4-2.016 0.94-0.756 2.2 0.864 4.32 1.548 2.02 6.552 5.15 8.784 7.85 2.232 2.59 1.692 5.51 4.5 7.63 2.772 1.98 8.208 2.6 11.592 4.76 3.312 2.12 7.38 5.22 7.92 7.88 0.252 2.56-3.384 5.29-5.364 7.38-2.016 1.94-4.932 2.88-5.976 4.75-1.152 1.87-1.296 4.72-0.432 6.19 0.792 1.26 2.16 1.3 5.364 1.91 3.132 0.54 7.632 1.15 13.5 1.69-3.06 2.81-3.276 4.72-0.648 5.73 2.592 0.97 10.692 0.07 16.092 0.21 5.292-0.03 10.728-0.32 15.624 0.26 4.752 0.54 9.108 1.65 13.068 3.34-4.284 3.06-6.444 5.76-6.624 8.1-0.144 2.27 2.088 4.97 5.58 5.73 3.384 0.57 10.476-1.87 14.76-1.91 4.25-0.11 6.34 0.22 10.73 1.4 4.35 1.08 10.55 2.88 15.23 5.26 4.64 2.2 8.53 5 12.2 8.28v31.68c3.28 0.14 6.55 0.28 9.87 0.46z"/>
	<path id="path9" style="fill-rule:evenodd;stroke:#000000;stroke-width:.036;stroke-miterlimit:10;fill:#00c200" d="m139.55 270.87l5.58 0.72c0.18 4.79 0.32 9.51 0.43 14.55 0.11 4.93 0.18 10.01 0.22 15.23-0.72-0.15-1.59-0.22-2.59-0.22-1.01 0-2.2 0.07-3.42 0.22-0.08-10.16-0.15-20.31-0.22-30.5z"/>
	<path id="path11" style="fill-rule:evenodd;stroke:#000000;stroke-width:.036;stroke-miterlimit:10;fill:#00c200" d="m143.4 267.78c-3.92-1.3-8.13-2.7-12.63-4.76-4.58-2.08-10.55-5.72-14.58-7.16-4.18-1.48-6.2-1.4-10.08-1.44-4-0.03-9.652 0.61-13.072 0.97-3.42 0.11-5.328 0.51-7.092 0.22-1.872-0.36-3.456-0.94-3.636-2.12-0.252-1.37 1.116-3.46 2.592-5.01 1.44-1.51 3.456-2.73 6.192-3.81-3.132-1.87-6.624-3.1-10.476-4.07-3.96-0.94-7.812-1.22-12.672-1.4-5.004-0.18-12.276-0.04-16.272 0-3.888-0.04-5.832-0.08-7.092-0.51-1.332-0.68-0.972-1.91-0.864-2.84 0-0.87 0.36-1.66 1.08-2.38-4.824-0.32-8.748-0.75-11.772-1.44-3.168-0.79-5.904-1.29-6.66-2.63-0.756-1.47 0.288-3.16 2.16-5.47 1.872-2.3 7.272-5.79 8.568-8.1 1.152-2.34 0.324-4.03-1.512-6.19-2.052-2.3-6.768-5.62-9.864-7.16-3.132-1.73-6.192-0.76-8.352-2.49-2.196-1.91-2.988-6.08-4.716-8.1-1.836-2.09-4.14-2.19-5.796-3.81-1.656-1.8-4.68-4.86-4.068-5.98 0.504-1.01 2.916-0.58 7.092-0.25 4.032 0.25 12.06 0.83 17.136 1.44 4.968 0.43 11.016 1.94 12.852 1.18 1.62-0.93-1.548-3.92-2.556-6.19-1.044-2.37-3.6-6.4-3.204-7.38 0.288-0.93 2.664-0.18 5.328 1.44 2.664 1.48 6.516 5.19 10.296 7.38 3.6 2.02 8.964 3.64 11.376 5.26 2.196 1.69 1.152 2.99 2.556 4.28 1.368 1.05 4.464 0.87 6.228 2.38 1.692 1.62 2.592 4.03 4.5 6.66 1.836 2.37 5.364 7.13 6.84 7.88 1.368 0.61 0.9-4.03 1.944-3.81 0.972 0.25 2.448 2.84 4.284 5 1.836 2.12 4.428 5.33 6.66 7.13 2.052 1.58 3.888 1.04 6.192 2.41 2.23 1.3 4.61 2.66 7.52 5.22 2.88 2.41 6.7 6.98 9.65 9.54 2.92 2.41 5.37 5.08 7.49 5.47 2.02 0.36 3.82-1.54 4.28-3.09 0.29-1.66 0.04-3.75-2.12-6.41-2.3-2.77-6.73-6.05-10.94-9.54-4.25-3.53-11.74-8.78-14.15-11.2-2.486-2.44 0.43-2.08-0.43-3.34-0.98-1.37-2.344-2.42-4.936-4.54-2.772-2.23-8.892-6.16-10.728-8.57-1.8-2.45 0.72-4.39 0.216-5.97-0.648-1.7-0.756-1.52-3.636-4.04-2.988-2.7-10.944-8.64-13.716-11.44-2.808-2.81-3.348-3.96-2.988-5.26 0.252-1.33 3.168-2.09 4.716-3.1 1.476-1.18 2.952-2.41 4.284-3.81-1.692-1.19-3.528-2.56-5.364-3.96-1.944-1.51-4.896-3.06-5.796-4.79-0.828-1.8 1.476-4 0.648-5.47-1.152-1.62-5.76-2.59-6.444-3.35-0.648-0.72 3.132 0.07 3.024-0.94-0.216-1.18-2.124-3.38-3.636-5.47-1.656-2.09-5.184-5.47-5.58-6.69-0.324-1.26 0.36-1.44 3.42-0.94 2.952 0.36 9.612 1.87 14.148 3.56 4.5 1.77 8.784 4.61 12.42 6.45 3.42 1.58 6.444 3.42 8.388 3.56 1.8 0 2.196-2.34 2.988-2.84 0.756-0.51 1.008-0.83 1.728 0 0.576 0.72 1.188 3.09 2.124 4.5 0.972 1.4 2.16 3.02 3.42 3.35 1.12 0.07 2.27-2.38 3.46-2.63 0.97-0.47 1.87-0.69 2.98 0.72 1.16 1.37 2.49 5.04 3.86 8.1 1.26 2.99 2.59 7.85 3.85 10.01 1.15 1.94 2.23 2.73 3.24 2.37 0.9-0.43 1.47-3.92 2.55-4.5 0.98-0.61 2.56-0.25 3.64 0.94 0.97 1.11 1.76 3.78 2.38 6.19 0.43 2.38-0.26 6.62 0.86 7.88 1.15 1.05 4.72-1.62 5.98-1.18 1.04 0.43 0.75 1.83 1.08 3.81 0.21 1.87 0.25 4.5 1.08 7.6 0.9 3.06 2.16 6.59 4.06 10.73-0.64 2.05-1 6.08-1.08 12.09-0.07 6.05 0.15 13.86 0.65 23.83-4.17-9.79-8.67-19.11-13.93-28.65-5.36-9.54-11.84-19.91-17.35-27.9-5.51-8.03-9.074-13.47-15.014-19.77-6.084-6.48-19.224-17.1-20.808-18.1-1.512-0.9 6.372 6.73 11.592 12.63 5.076 5.76 13.86 15.52 18.86 21.93 4.86 6.26 7.1 9.86 10.73 15.94 3.6 6.05 6.88 12.1 11.34 20.52 4.39 8.5 9.47 18.15 15.23 29.78 0.14 0.61 0.14 1.9 0 4.28-0.22 2.3-0.58 5.44-1.08 9.54-8.82-1.8-16.34-4.1-22.72-6.91-6.4-2.99-9.93-6.3-15.44-10.23-5.688-3.96-12.06-8.89-18-13.14-5.976-4.35-11.16-9.18-17.352-12.38-6.408-3.24-18.288-6.08-19.944-6.44-1.548-0.44 6.444 2.48 10.512 4.32 3.888 1.76 7.776 3.06 13.068 6.66 5.148 3.52 11.088 9.07 18.216 14.54 7.128 5.44 18.07 13.68 24.23 17.64 5.94 3.71 6.95 3.38 11.77 5 4.75 1.66 10.4 2.99 16.96 4.54 2.48 2.12 6.8 4.61 13.5 7.74 6.66 3.06 16.13 7.74 25.92 10.73 9.57 2.84 20.73 4.32 31.53 6.66 10.8 2.3 24.09 5.79 32.76 7.13 8.54 1.15 18.18 0.68 18.26 0.25-0.15-0.43-10.44-1.33-18.65-2.85-8.35-1.65-21.35-4.86-30.67-6.69-9.33-1.95-15.81-2.05-24.88-4.5-9.22-2.59-22.54-7.31-29.56-10.26s-11.05-5.37-12.24-7.38c1.84-1.98 6.05-4.83 13.07-8.82 6.95-4.11 19.19-10.59 28.51-15.01 9.22-4.43 14.66-6.05 26.61-11.24 12.02-5.36 42.33-18.86 44.56-20.23 1.88-1.26-21.2 7.6-32.58 12.13-11.41 4.4-25.02 9.54-35.13 14.08-10.15 4.46-18.43 9-25.53 12.64-7.19 3.63-12.78 6.44-17.13 8.82l-0.22-9.54c6.55-9.69 11.96-19.37 16.49-29.45 4.43-10.12 7.02-22.5 10.3-30.75 3.13-8.35 5.29-12.96 9-18.82 3.67-5.98 12.2-14.37 13.5-16.42 1.22-2.09-2.67 0.04-5.98 4.03-3.49 3.93-10.48 12.35-14.15 19.3-3.67 6.84-5.5 14.72-7.74 21.71-2.37 6.8-2.37 12.2-5.97 19.54-3.67 7.31-8.64 15.45-15.45 24.41-0.21-4.71-0.29-8.71-0.21-12.13-0.04-3.49 0.43-4.93 0.43-8.35 0-3.49-0.15-7.42-0.43-12.17 2.66-0.14 5.04-1.91 7.27-5.58 2.19-3.71 4.17-10.22 5.79-16.2 1.44-6.12 2.56-14.26 3.21-19.55 0.64-5.29 0.1-9.86 0.86-11.91 0.61-2.16 1.94-0.65 3.02-0.72 1.05-0.11 1.44 1.26 2.99 0.21 1.41-1.22 3.17-4.39 5.58-7.02 2.34-2.73 7.09-8.31 8.57-8.82 1.33-0.39-1.08 4.29-0.43 5.98 0.5 1.58 1.69 3.35 3.85 3.35 2.16-0.18 6.73-2.56 9-4.07 2.09-1.62 2.7-2.92 4.07-5.26 1.33-2.48 2.37-7.16 4.1-9.03 1.62-1.91 3.75-0.98 5.55-1.91 1.65-1.01 3.27-2.23 4.71-3.82 1.44-1.73 3.21-5.9 3.89-5.72 0.4 0.21-0.29 4.64-0.65 6.91-0.36 2.2-1.76 4.28-1.29 5.98 0.25 1.51 3.38 1.29 3.42 3.09-0.08 1.73-1.52 4.47-3.21 7.38-1.83 2.88-5.54 6.01-7.09 9.54-1.58 3.39-2.34 8.71-2.12 10.73 0.25 1.91 2.26 0.65 3.42 0.94 1.08 0.14 3.09-0.4 2.98 0.46-0.25 0.94-3.42 2.49-4.06 4.79-0.8 2.2 0.36 6.12 0 8.32-0.36 1.98-0.29 1.94-2.13 4.07-2.01 2.16-7.77 6.44-9.21 8.81-1.44 2.2 0.72 3.46 0.64 4.76-0.18 1.22 0.54-0.04-1.72 2.88-2.52 2.88-8.18 9.57-12.64 14.54-4.57 4.86-10.91 10.62-14.15 14.76-3.35 4.03-5.43 7.81-5.15 9.54 0.29 1.69 3.39 2.13 7.06 0.72 3.6-1.58 10.66-5.83 14.8-9.54 3.99-3.85 6.69-8.89 9.64-12.63 2.81-3.75 5.51-6.7 7.71-9.54 2.16-2.96 4.07-5.48 5.58-7.85-0.15 1.4 0.5 2.19 1.94 2.37 1.37 0.07 3.53-0.43 6.63-1.65 3.09-1.3 7.95-4.21 11.8-5.98 3.68-1.91 6.74-3.85 10.3-5 3.49-1.3 7.6-1.84 10.51-2.16 2.77-0.36 5.83-0.65 6.41 0.25 0.43 0.9-2.7 3.81-2.99 5-0.29 1.01-0.39 1.37 1.48 1.66 1.87 0.18 5.47-0.15 9.43 0 3.82 0.03 10.8-0.07 13.32 0.5 2.41 0.51 1.08 1.55 1.26 2.6 0.11 0.97-1.83 2.41-0.43 3.34 1.33 0.76 5.15 1.08 8.39 1.66 3.09 0.47 7.95 1.12 10.69 1.94 2.81 0.98 4.89 2.31 5.58 3.32 0.43 0.75 0 1.26-2.56 1.65-2.77 0.22-8.24-0.39-13.07 0.51-4.93 0.89-11.91 3.23-15.66 5.22-3.81 1.87-5.58 4.39-6.65 6.19-1.08 1.69-1.34 3.06 0.21 4.53 1.55 1.41 5.65 2.49 8.57 4.07 2.81 1.48 7.77 3.92 7.95 5 0 0.9-3.99 0.98-7.52 1.19-3.67 0.11-9.54-0.65-13.71 0.25-4.15 0.94-7.46 3.96-10.91 5.48-3.6 1.44-6.27 2.84-10.08 3.09-3.93 0.11-7.92-0.61-12.67-2.16 1.08 1.95 1.8 3.6 2.16 5.26 0.35 1.69 1.47 3.17 0 4.28-1.59 0.83-7.28 0.61-9.44 1.44-2.27 0.83-1.19 2.85-3.85 3.57-2.84 0.61-7.2 0.32-12.24 0.25-5.08-0.18-13.25-1.15-17.57-0.98-4.32 0.08-5.11 0.44-8.35 1.91-3.53 1.51-10.01 5.11-11.81 6.91-1.69 1.66 0.18 2.27 1.3 3.1 0.9 0.76 1.62 1.26 4.5 1.66 2.84 0.36 8.71 0.75 12.45 0.5 3.68-0.47 6.27-1.62 9.44-2.63 3.13-1.15 7.38-3.24 9-3.35 1.29-0.1-0.72 1.52-0.22 2.63 0.47 0.97 1.01 2.92 3.42 3.35 2.3 0.29 5.83-0.29 10.73-1.19 4.82-1.04 14.25-3.71 18.43-4.53 3.96-0.98 5.44-1.41 5.98-0.72 0.47 0.68-2.7 3.74-2.56 5 0.15 1.15 1.08 1.44 3.21 2.38 2.05 0.82 5 2.34 9 2.88 3.92 0.39 10.65 0.07 14.79 0 4.11-0.15 7.78-1.01 9.65-0.51 1.65 0.51 0.9 1.95 0.65 3.35-0.33 1.26-1.62 2.88-2.34 4.28-0.76 1.34-1.48 2.49-2.16 3.6-1.01 0.98-2.63 1.12-2.78 2.38-0.1 1.19-0.07 3.56 2.34 4.75 2.31 0.98 7.82 0.98 11.81 1.66 3.96 0.68 9.44 1.44 11.99 2.41 2.48 0.76 4.36 1.66 2.99 2.84-1.55 1.08-7.85 2.88-11.56 4.29-3.74 1.33-6.87 2.91-10.51 4.07-3.71 1.04-7.56 1.83-11.56 2.37 1.44 1.3 2.78 2.7 3.86 4.07 1.11 1.37 3.38 3.49 2.77 4.28-0.76 0.62-4.61 0.29-7.27 0-2.81-0.39-6.34-1.22-9.22-1.9-2.88-0.76-5.26-2.06-7.96-2.38-2.84-0.58-7.48-1.12-8.78-0.25-1.3 0.97 0.61 4.17 0.86 5.72 0.08 1.33 0.65 2.34-0.21 2.63-0.94 0.22-0.83 0.36-5.37-1.22-4.75-1.73-15.37-5.51-22.28-8.57-6.95-3.1-13.14-6.3-18.86-9.76-0.04 1.69-0.33 2.99-0.87 4.03-0.57 1.01-0.1 2.81-2.34 1.91-2.34-1.19-7.31-4.64-11.16-7.85-3.96-3.2-7.81-7.88-11.98-10.72-4.25-2.78-8.82-4.79-12.89-6.2-4.11-1.61-7.96-2.37-11.56-2.8z"/>
	<path id="path13" style="fill-rule:evenodd;stroke:#000000;stroke-width:.036;stroke-miterlimit:10;fill:#fbffd6" d="m131.81 56.997c-1.69-1.008-3.42-2.232-5.33-3.816-2.01-1.656-4.71-4.068-6.01-5.724-1.3-1.764-1.8-3.276-1.51-4.536-3.57-2.7-7.63-4.788-12.21-6.408-4.75-1.728-11.012-3.024-15.44-3.348-4.392-0.396-8.568 0-10.728 1.188-2.304 1.044-2.988 2.196-2.34 5.256s4.212 8.82 6.408 12.852c2.16 3.852 2.484 6.048 6.66 10.476s10.12 9.504 18.22 15.768c0.28-0.288 1.76-0.72 4.28-1.44 2.56-0.72 6.16-1.728 10.94-2.88-0.18-2.88 0.33-5.688 1.52-8.568 1.18-2.952 2.98-5.796 5.54-8.82z"/>
	<path id="path15" style="fill-rule:evenodd;stroke:#000000;stroke-width:.036;stroke-miterlimit:10;fill:#fbffd6" d="m126.27 76.761c1.18 1.404 2.41 2.628 4.06 4.068 1.55 1.404 3.06 2.952 5.37 4.068 2.23 0.936 4.82 1.62 7.92 1.908 1.91 3.384 2.45 6.696 1.91 10.224-0.62 3.531-3.06 7.311-5.55 10.511-2.63 3.1-6.3 5.58-9.65 7.85-3.52 2.12-7.77 4.57-10.51 5-2.73 0.22-3.09-1.65-5.36-2.84-2.38-1.26-5.11-2.52-8.35-4.07-3.35-1.62-8.824-2.77-11.164-5-2.448-2.27-2.772-5.66-2.772-8.36-0.036-2.803 0.504-5.575 2.988-8.311 2.376-2.88 6.368-6.12 11.588-8.604 5.26-2.484 11.63-4.68 19.52-6.444z"/>
	<path id="path17" style="fill-rule:evenodd;stroke:#000000;stroke-width:.036;stroke-miterlimit:10;fill:#fbffd6" d="m147.47 87.741c0.5 0.324 0.72 1.728 0.65 4.068-0.15 2.304-0.58 5.688-1.3 10.011 2.49 1.94 5.22 3.63 8.36 5.22 3.06 1.51 6.22 3.7 10.07 4.06 3.75 0.26 8.36-0.86 12.46-2.37 3.93-1.59 9.58-3.93 11.56-7.17 1.87-3.379 1.62-9.247 0.21-12.883-1.54-3.78-5.47-7.02-9-9.036-3.67-2.016-8.38-2.196-12.2-2.88-3.85-0.792-7.31-1.296-10.51-1.656-0.51 2.232-1.44 4.284-3.21 6.444-1.8 2.088-4.03 4.104-7.09 6.192z"/>
	<path id="path19" style="fill-rule:evenodd;stroke:#000000;stroke-width:.036;stroke-miterlimit:10;fill:#fbffd6" d="m156.9 72.009c3.03 0.396 5.94 1.008 9.43 1.44 3.39 0.396 7.57 1.152 10.73 1.44 2.88 0.144 4.47 1.44 7.27 0 2.96-1.548 7.31-5.256 9.87-8.604 2.34-3.42 3.74-6.912 4.5-11.448 0.57-4.716 1.08-12.384-0.43-16.2-1.66-3.852-5.01-6.12-8.79-6.66-3.89-0.576-9.61 1.008-13.71 3.348-4.18 2.124-7.24 5.832-10.73 10.008-3.6 4.212-6.73 9.072-10.08 15.012 1.08 1.368 1.8 2.988 2.16 5.004 0.29 1.98 0.21 4.104-0.22 6.66z"/>
	<path id="path21" style="fill-rule:evenodd;stroke:#000000;stroke-width:.036;stroke-miterlimit:10;fill:#fbffd6" d="m151.97 57.429c1.51-1.26 2.7-4.392 3.42-9.54 0.72-5.292 2.2-14.904 1.08-21.204-1.22-6.408-5.11-12.276-8.35-16.2-3.46-4.032-7.92-6.372-11.59-7.164-3.71-0.792-7.53-0.396-10.05 2.844-2.66 3.24-4.1 11.124-5.15 16.452-1 5.292-1.29 10.944-0.86 15.012 0.29 3.924 0.68 5.544 2.99 8.604 2.23 2.952 5.69 6.048 10.51 9.288 3.53-2.124 6.52-2.952 9.65-2.628 2.91 0.288 5.83 1.8 8.35 4.536z"/>
	<path id="path23" style="fill-rule:evenodd;stroke:#000000;stroke-width:.036;stroke-miterlimit:10;fill:#f3ec63" d="m133.54 60.273c-1.98 1.656-3.21 2.628-4.07 5.004-1.01 2.376-2.48 5.76-1.51 8.604 1.08 2.592 4.53 5.652 7.31 7.38 2.59 1.62 5.83 2.7 8.35 2.844 2.37 0.144 4.21-0.54 6.19-1.908 1.94-1.548 4.57-3.96 5.37-6.66 0.72-2.88-0.33-6.804-1.05-9.54-0.83-2.7-1.8-4.752-3.89-6.444-2.19-1.8-6.3-4.212-9-4.032-2.81 0.036-5.79 3.096-7.7 4.752z"/>
	<path id="path25" style="fill-rule:evenodd;stroke:#000000;stroke-width:.036;stroke-miterlimit:10;fill:#00c200" d="m142.97 252.66l3.64-3.6c-0.83-12.71-1.26-24.27-1.3-35.5s0.47-21.96 1.08-31.21c0.47-9.33 1.69-16.24 2.16-24.34 0.4-8.13 0.36-15.69 0.43-24.23 0-8.64-0.14-17.6-0.43-27.18l-2.16-1.9-3.64 5c0.54 7.74 0.83 17.03 0.87 28.15-0.04 11.13-0.33 27.22-0.87 38.13-0.57 10.76-2.05 18.9-2.34 26.2-0.43 7.17 0.26 11.16 0.4 16.85 0.14 5.73 0.68 11.41 0.65 16.92-0.18 5.29-0.47 10.3-1.26 15.02 0.9 0.54 1.83 1.11 2.77 1.69z"/>
</g>
<metadata><rdf:RDF><cc:Work><dc:format>image/svg+xml</dc:format><dc:type rdf:resource="http://purl.org/dc/dcmitype/StillImage"/><cc:license rdf:resource="http://creativecommons.org/licenses/publicdomain/"/><dc:publisher><cc:Agent rdf:about="http://openclipart.org/"><dc:title>Openclipart</dc:title></cc:Agent></dc:publisher><dc:title>GG anemone canadensis</dc:title><dc:date>2006-09-21T08:23:33</dc:date><dc:description>Colored anemone flower.</dc:description><dc:source>https://openclipart.org/detail/184/gg-anemone-canadensis-by-gerald_g</dc:source><dc:creator><cc:Agent><dc:title>Gerald_G</dc:title></cc:Agent></dc:creator><dc:subject><rdf:Bag><rdf:li>anemone</rdf:li><rdf:li>flower</rdf:li><rdf:li>nature</rdf:li><rdf:li>outline</rdf:li><rdf:li>plant</rdf:li></rdf:Bag></dc:subject></cc:Work><cc:License rdf:about="http://creativecommons.org/licenses/publicdomain/"><cc:permits rdf:resource="http://creativecommons.org/ns#Reproduction"/><cc:permits rdf:resource="http://creativecommons.org/ns#Distribution"/><cc:permits rdf:resource="http://creativecommons.org/ns#DerivativeWorks"/></cc:License></rdf:RDF></metadata></svg>