<?xml version="1.0" encoding="UTF-8" standalone="no"?>
<svg xmlns:dc="http://purl.org/dc/elements/1.1/" xmlns:cc="http://creativecommons.org/ns#" xmlns:rdf="http://www.w3.org/1999/02/22-rdf-syntax-ns#" xmlns:svg="http://www.w3.org/2000/svg" xmlns="http://www.w3.org/2000/svg" xmlns:sodipodi="http://sodipodi.sourceforge.net/DTD/sodipodi-0.dtd" xmlns:inkscape="http://www.inkscape.org/namespaces/inkscape" width="800" height="1461.759" id="svg2" version="1.1" inkscape:version="0.91 r13725" sodipodi:docname="Pineapple2.svg">
  <sodipodi:namedview pagecolor="#ffffff" bordercolor="#666666" borderopacity="1" objecttolerance="10" gridtolerance="10" guidetolerance="10" inkscape:pageopacity="0" inkscape:pageshadow="2" inkscape:window-width="1600" inkscape:window-height="837" id="namedview37" showgrid="false" fit-margin-top="0" fit-margin-left="0" fit-margin-right="0" fit-margin-bottom="0" inkscape:zoom="0.45835187" inkscape:cx="400.00001" inkscape:cy="730.87951" inkscape:window-x="-8" inkscape:window-y="-8" inkscape:window-maximized="1" inkscape:current-layer="svg2"/>
  <metadata id="metadata41">
    <rdf:RDF>
      <cc:Work rdf:about="">
        <dc:format>image/svg+xml</dc:format>
        <dc:type rdf:resource="http://purl.org/dc/dcmitype/StillImage"/>
        <dc:title/>
      </cc:Work>
    </rdf:RDF>
  </metadata>
  <defs id="defs39">
    <filter id="filter4958" inkscape:label="Cross Blur" style="color-interpolation-filters:sRGB">
      <feColorMatrix id="feColorMatrix4960" result="colormatrix" values="1 0 0 0 0 0 1 0 0 0 0 0 1 0 0 -0.2125 -0.7154 -0.0721 1 0 " in="SourceGraphic"/>
      <feComposite id="feComposite4962" result="composite" k4="0" k3="0" k2="1" operator="arithmetic" in2="colormatrix" in="SourceGraphic" k1="0"/>
      <feGaussianBlur id="feGaussianBlur4964" result="blur1" stdDeviation="0.1 0.01"/>
      <feGaussianBlur id="feGaussianBlur4966" result="blur2" stdDeviation="0.01 0.1" in="composite"/>
      <feBlend id="feBlend4968" result="blend" mode="darken" in2="blur1" in="blur2"/>
    </filter>
    <clipPath id="clipPath5479" clipPathUnits="userSpaceOnUse">
      <path inkscape:connector-curvature="0" id="path5481" d="m 3045.0254,0 c -105.0573,164.74018 -2.4009,278.85828 66.1055,326.86914 174.3912,122.21739 290.1439,202.83292 470.3593,348.90625 l 34.1426,-33.20312 0,-0.0156 C 3461.2971,501.18544 3285.8281,369.84112 3151.1035,216.47266 l 464.5293,426.08398 0,0 20.9023,-20.32226 C 3459.5586,468.63878 3039.8614,114.1851 3045.0254,0 Z m 602.293,627.03906 -59.8282,58.08203 c -2.5345,2.45993 -2.2608,8.65821 0.5938,9.42969 59.4579,16.06873 76.3705,39.31693 98.4805,62.06055 29.3581,35.92615 38.9134,76.90337 58.7148,93.61523 36.6161,30.90302 69.2631,-12.76806 47.9648,-56.06054 -14.532,-29.53904 -33.815,-51.96907 -59.1796,-79.16016 -25.3646,-27.19123 -60.9892,-57.85042 -86.7461,-87.9668 z m 14.625,38.47461 a 7.4787589,7.4787589 0 0 1 0.5254,0.0312 7.4787589,7.4787589 0 0 1 6.7402,8.14649 7.4787589,7.4787589 0 0 1 -8.1485,6.74023 7.4787589,7.4787589 0 0 1 -6.7402,-8.14648 7.4787589,7.4787589 0 0 1 7.6231,-6.77149 z m 50.291,52.9336 a 7.4787589,7.4787589 0 0 1 0.5273,0.0312 7.4787589,7.4787589 0 0 1 6.7403,8.14843 7.4787589,7.4787589 0 0 1 -8.1504,6.75391 7.4787589,7.4787589 0 0 1 -6.7383,-8.16211 7.4787589,7.4787589 0 0 1 7.6211,-6.77148 z m 43.5293,53.49023 a 7.4787589,7.4787589 0 0 1 0.5254,0.0293 7.4787589,7.4787589 0 0 1 6.7402,8.14843 7.4787589,7.4787589 0 0 1 -8.1465,6.74024 7.4787589,7.4787589 0 0 1 -6.7402,-8.14844 7.4787589,7.4787589 0 0 1 7.6211,-6.76953 z" style="fill:#000000;fill-opacity:1"/>
    </clipPath>
    <filter style="color-interpolation-filters:sRGB" inkscape:label="Cross Blur" id="filter5858">
      <feColorMatrix in="SourceGraphic" values="1 0 0 0 0 0 1 0 0 0 0 0 1 0 0 -0.2125 -0.7154 -0.0721 1 0 " result="colormatrix" id="feColorMatrix5860"/>
      <feComposite k1="0" in="SourceGraphic" in2="colormatrix" operator="arithmetic" k2="1" k3="0" k4="0" result="composite" id="feComposite5862"/>
      <feGaussianBlur stdDeviation="0.1 0.01" result="blur1" id="feGaussianBlur5864"/>
      <feGaussianBlur in="composite" stdDeviation="0.01 0.1" result="blur2" id="feGaussianBlur5866"/>
      <feBlend in="blur2" in2="blur1" mode="darken" result="blend" id="feBlend5868"/>
    </filter>
    <filter style="color-interpolation-filters:sRGB" inkscape:label="Cross Blur" id="filter9553">
      <feColorMatrix in="SourceGraphic" values="1 0 0 0 0 0 1 0 0 0 0 0 1 0 0 -0.2125 -0.7154 -0.0721 1 0 " result="colormatrix" id="feColorMatrix9555"/>
      <feComposite in="SourceGraphic" in2="colormatrix" operator="arithmetic" k2="1" k3="0" k4="0" result="composite" id="feComposite9557" k1="0"/>
      <feGaussianBlur stdDeviation="0.1 0.01" result="blur1" id="feGaussianBlur9559"/>
      <feGaussianBlur in="composite" stdDeviation="0.01 0.1" result="blur2" id="feGaussianBlur9561"/>
      <feBlend in="blur2" in2="blur1" mode="darken" result="blend" id="feBlend9563"/>
    </filter>
    <clipPath clipPathUnits="userSpaceOnUse" id="clipPath9565">
      <path style="fill:#dad9d0;fill-opacity:1" d="m 3045.0254,0 c -105.0573,164.74018 -2.4009,278.85828 66.1055,326.86914 174.3912,122.21739 290.1439,202.83292 470.3593,348.90625 l 34.1426,-33.20312 0,-0.0156 C 3461.2961,501.18544 3285.8281,369.84112 3151.1035,216.47266 l 464.5293,426.08398 20.9024,-20.32226 C 3459.5577,468.63878 3039.8614,114.1851 3045.0254,0 Z m 602.293,627.03906 -59.8282,58.08203 c -2.5345,2.45993 -2.2608,8.65821 0.5938,9.42969 59.4579,16.06873 76.3705,39.31693 98.4805,62.06055 29.3581,35.92615 38.9134,76.90337 58.7148,93.61523 36.6161,30.90302 69.263,-12.76806 47.9648,-56.06054 -14.532,-29.53904 -33.815,-51.96907 -59.1796,-79.16016 -25.3647,-27.19123 -60.9892,-57.85042 -86.7461,-87.9668 z m 14.625,38.47461 a 7.4787589,7.4787589 0 0 1 0.5254,0.0312 7.4787589,7.4787589 0 0 1 6.7402,8.14649 7.4787589,7.4787589 0 0 1 -8.1485,6.74023 7.4787589,7.4787589 0 0 1 -6.7402,-8.14648 7.4787589,7.4787589 0 0 1 7.6231,-6.77149 z m 50.291,52.9336 a 7.4787589,7.4787589 0 0 1 0.5273,0.0312 7.4787589,7.4787589 0 0 1 6.7403,8.14843 7.4787589,7.4787589 0 0 1 -8.1504,6.75391 7.4787589,7.4787589 0 0 1 -6.7383,-8.16211 7.4787589,7.4787589 0 0 1 7.6211,-6.77148 z m 43.5293,53.49023 a 7.4787589,7.4787589 0 0 1 0.5254,0.0293 7.4787589,7.4787589 0 0 1 6.7402,8.14843 7.4787589,7.4787589 0 0 1 -8.1465,6.74024 7.4787589,7.4787589 0 0 1 -6.7402,-8.14844 7.4787589,7.4787589 0 0 1 7.6211,-6.76953 z" id="path9567" inkscape:connector-curvature="0"/>
    </clipPath>
  </defs>
  <g id="g10211">
    <path sodipodi:nodetypes="ccccccccccccccc" style="fill:#73b642;stroke:#000000;stroke-width:18.09556007" inkscape:connector-curvature="0" id="path338" d="M 304.19032,586.8581 C 344.98473,530.67923 276.52237,446.63671 226.09385,422.52134 163.09583,392.42981 113.7963,394.08567 56.247576,428.24159 44.837182,263.61881 202.87109,259.38684 320.31239,334.36927 279.27712,312.542 235.02045,285.61166 195.52061,260.30708 146.34152,228.66507 131.92046,181.6988 69.343938,200.39499 130.77641,50.73518 364.01209,104.55069 370.28931,253.77396 391.24349,192.44685 428.41006,152.75133 497.4294,146.83538 c 73.24931,-6.32238 93.17986,51.06076 144.40621,83.13932 -41.02022,0.84299 -92.98417,11.96737 -126.62828,37.19668 -44.64805,33.614 -66.82107,53.09286 -124.74661,78.96956 59.32502,-17.98868 101.27854,-82.92857 166.0679,-72.75255 65.70761,10.2814 87.47466,63.53994 103.14514,118.42424 -122.30798,-32.74091 -147.07064,67.86023 -199.81737,146.95021 -25.01857,37.58807 -137.30106,80.47489 -149.55444,11.92221"/>
    <path style="fill:#73b642;stroke:#000000;stroke-width:18.09556007" inkscape:connector-curvature="0" id="path472" d="m 438.55598,405.6889 c 7.84277,35.29997 29.79046,102.4527 12.20822,136.74409 -20.20152,39.42457 -67.00219,33.3882 -98.50873,7.70729 C 281.09857,492.23027 323.12735,379.90262 308.76652,301.41476 301.08934,259.7021 284.96726,223.63442 296.40776,179.69386 312.49973,117.83989 374.18811,14.890443 446.8654,9.6970576 447.72344,38.539161 420.1157,54.631128 409.1268,79.890549 395.12724,112.37555 396.97879,154.76561 398.70992,189.26775 c 3.80849,73.52027 23.97989,144.93308 39.84606,216.42115 z"/>
    <path style="fill:#f7a639;stroke:#000000;stroke-width:18.09556007" inkscape:connector-curvature="0" id="path474" d="M 85.706864,674.917 C 1.1675877,795.67449 -5.6364994,966.74008 27.977497,1107.4131 c 34.607514,144.5266 99.381823,242.8396 232.317423,308.6677 189.64135,93.9024 397.18106,-0.542 476.9635,-187.835 C 820.2171,1033.3509 813.27753,785.84469 671.47554,619.21982 495.63806,412.91448 234.16241,462.80109 85.706864,674.917 Z"/>
    <path sodipodi:nodetypes="cccc" d="m 25.568971,1113.4193 c 39.665419,1.4753 77.072849,40.1622 108.714859,60.1379 56.32941,35.5559 108.97077,81.0319 161.47664,122.022 65.04527,50.6392 120.02891,105.3253 185.49567,152.5776" id="path476" inkscape:connector-curvature="0" style="fill:none;stroke:#000000;stroke-width:18.09556007"/>
    <path d="M 7.5200761,938.66569 C 138.64929,974.4022 258.50358,1073.1819 362.26591,1156.9685 c 84.97582,68.5828 183.30391,140.2966 249.01152,227.681" id="path478" inkscape:connector-curvature="0" style="fill:none;stroke:#000000;stroke-width:18.09556007"/>
    <path sodipodi:nodetypes="cccc" d="m 43.783452,763.91205 c 61.131408,44.67816 140.552568,70.63003 206.756938,108.48906 71.99989,41.15569 142.14822,91.25304 209.88802,140.07089 97.31952,70.073 169.24566,177.2204 258.34608,249.9428" id="path480" inkscape:connector-curvature="0" style="fill:none;stroke:#000000;stroke-width:18.09556007"/>
    <path sodipodi:nodetypes="cc" d="m 119.46888,635.7679 c 261.17458,58.09064 477.29467,289.8812 652.07842,470.0089" id="path482" inkscape:connector-curvature="0" style="fill:none;stroke:#000000;stroke-width:18.09556007"/>
    <path sodipodi:nodetypes="ccc" d="m 261.09275,522.89382 c 124.009,49.11889 223.73804,123.89385 323.87253,211.57926 60.92066,53.28865 170.5287,129.90491 204.71472,203.89183" id="path484" inkscape:connector-curvature="0" style="fill:none;stroke:#000000;stroke-width:18.09556007"/>
    <path sodipodi:nodetypes="cccc" d="M 25.568971,1083.2977 C 60.221644,1028.8951 72.866408,956.14256 99.299985,896.65196 129.49688,828.6713 161.28943,760.88634 200.59357,697.66252 237.24833,638.53319 298.37979,525.36655 361.88962,490.06658" id="path486" inkscape:connector-curvature="0" style="fill:none;stroke:#000000;stroke-width:18.09556007"/>
    <path sodipodi:nodetypes="ccc" d="M 91.68302,1268.122 C 168.21395,1098.1704 227.25295,952.03301 317.12109,788.25322 352.64686,723.53912 446.42482,517.99951 519.1021,509.19333" id="path488" inkscape:connector-curvature="0" style="fill:none;stroke:#000000;stroke-width:18.09556007"/>
    <path sodipodi:nodetypes="cccc" d="m 174.92572,1367.1074 c 45.74695,-63.7808 66.68807,-151.3558 104.06539,-222.0009 52.02417,-98.1023 104.62036,-194.78956 162.2293,-289.74572 53.13812,-87.59509 118.27071,-199.97393 200.68748,-263.4386" id="path490" inkscape:connector-curvature="0" style="fill:none;stroke:#000000;stroke-width:18.09556007"/>
    <path sodipodi:nodetypes="ccc" d="M 285.20812,1432.805 C 377.43962,1256.5309 458.51664,1072.7453 558.45544,899.39166 594.94461,836.03236 664.816,724.9491 720.93467,692.2082" id="path492" inkscape:connector-curvature="0" style="fill:none;stroke:#000000;stroke-width:18.09556007"/>
    <path d="m 412.00198,1456.9354 c 22.26381,-69.0193 76.65135,-129.8196 110.22019,-194.2025 39.3794,-75.4019 74.22777,-152.7608 114.82649,-227.7262 25.8164,-47.62856 56.13372,-93.58626 79.78244,-142.28365 17.10054,-35.07417 22.68531,-78.65344 45.41578,-110.7019" id="path494" inkscape:connector-curvature="0" style="fill:none;stroke:#000000;stroke-width:18.09556007"/>
    <path sodipodi:nodetypes="ccc" d="m 562.4626,1416.8344 c 64.39798,-76.0341 110.87955,-194.4292 151.35784,-284.1017 25.51533,-56.2993 67.31157,-125.4925 77.11126,-186.60889" id="path496" inkscape:connector-curvature="0" style="fill:none;stroke:#000000;stroke-width:18.09556007"/>
    <path sodipodi:nodetypes="cc" d="m 433.51712,488.39367 c 100.84199,72.58697 219.24623,165.04432 311.07129,245.35362" id="path498" inkscape:connector-curvature="0" style="fill:none;stroke:#000000;stroke-width:18.09556007"/>
  </g>
</svg>